<?xml version="1.0" encoding="utf-8"?>
<!-- Generator: Adobe Illustrator 22.0.0, SVG Export Plug-In . SVG Version: 6.00 Build 0)  -->
<svg version="1.1" id="Layer_1" xmlns="http://www.w3.org/2000/svg" xmlns:xlink="http://www.w3.org/1999/xlink" x="0px" y="0px"
	 viewBox="0 0 380 400" style="enable-background:new 0 0 380 400;" xml:space="preserve">
<style type="text/css">
	.st0{fill:#915B3C;}
	.st1{fill:#191847;}
	.st2{fill:#C5CFD6;}
	.st3{fill:#B28B67;}
	.st4{fill:#2F3676;}
	.st5{fill:#E4E4E4;}
	.st6{fill:#5C63AB;}
	.st7{fill:#C10290;}
	.st8{fill:#DDE3E9;}
	.st9{fill:#EB01A5;}
	.st10{fill-opacity:0.1;}
</style>
<title>humaaans/sitting-8</title>
<desc>Created with Sketch.</desc>
<g id="humaaans_x2F_sitting-8">
	
		<g id="A-Human_x2F_Sitting" transform="translate(206.000000, 200.500000) scale(-1, 1) translate(-206.000000, -200.500000) translate(56.000000, 24.000000)">
		<g id="Head_x2F_Front_x2F_Short-2" transform="translate(82.000000, 0.000000)">
			<g id="Head" transform="translate(54.000000, 31.000000)">
				<path class="st0" d="M8.3,34.5c-4.6-5.4-7.7-12-7.2-19.5C2.6-6.4,32.3-1.7,38.1,9.1s5.1,38.2-2.4,40.1c-3,0.8-9.3-1.1-15.8-5
					L24,73H0L8.3,34.5z"/>
			</g>
			<path id="Hair" class="st1" d="M60.4,70.3c-3-13.4-11.6-22.5-10.3-28.5c0.9-4,3.2-6.5,7-7.4c2-7.9,8.3-11.3,18.9-10.1
				c16,1.8,25.8,8.4,21.5,23c-3.9,0-8.6-1.4-15,1c-2.1,0.8-3.5,3.1-4.4,7.1h-2.9c-2.8-4.7-5.6-6.4-8.4-5.2c-2.8,1.2-3.4,4.3-1.9,9.1
				l-1.4,11H60.4z"/>
		</g>
		<g id="Bottom_x2F_Sitting_x2F_Baggy-Pants" transform="translate(0.000000, 187.000000)">
			<g id="Objects_x2F_Seat_x2F_Cube-2" transform="translate(10.000000, 42.000000)">
				<path id="Seat" class="st2" d="M59,0h115c8.8,0,16,7.2,16,16v92c0,8.8-7.2,16-16,16H59c-8.8,0-16-7.2-16-16V16
					C43,7.2,50.2,0,59,0z M75,28c-2.2,0-4,1.8-4,4v60c0,2.2,1.8,4,4,4h83c2.2,0,4-1.8,4-4V32c0-2.2-1.8-4-4-4H75z"/>
			</g>
			<path id="LegLower" class="st3" d="M299.2,161c-19.7-24.1-33.1-41.9-40-53.5c-11.9-19.9-21.7-37.6-24.8-44.4
				C227,47,251.3,39.4,256.8,46.9c8.3,11.4,26.1,47.2,53.2,107.5L299.2,161z"/>
			<path id="LegLower_1_" class="st4" d="M258.8,154l-36.7-92.4c-7.8-16.8,30.1-27.9,35.8-20.1c13.1,17.8,44.2,88,48.1,93.3
				L258.8,154z"/>
			
				<g id="Lower-Leg" transform="translate(220.172961, 98.499284) rotate(39.000000) translate(-220.172961, -98.499284) translate(192.672961, 26.499284)">
				<path id="LegLower_2_" class="st0" d="M4.8,138c-1-12.6-2.9-56.2-1-76.4c0.5-5.8,1.1-11.4,1.7-16.7c1.7-15.6,30.7-15.1,28.4-0.3
					c-5.7,37-15.8,88.9-16.6,93.4C16.3,144.2,5.4,145.9,4.8,138z"/>
			</g>
			
				<g id="Accessories_x2F_Shoe_x2F_Flat-Sneaker" transform="translate(189.500000, 140.000000) rotate(30.000000) translate(-189.500000, -140.000000) translate(159.000000, 120.000000)">
				<path id="shoe" class="st5" d="M2.7,25.4c-1.1,3-1.7,5.2-1.7,6.7c0,1.8,0.3,4.4,0.9,7.9c2.1,0,20.9,0,56.4,0
					c1.5-4.8,0.6-7.5-2.5-7.8c-3.2-0.4-5.8-0.7-7.9-1L21.7,19.4c-0.5-0.2-1.1,0-1.3,0.5c0,0,0,0,0,0L18.7,24c-2.9,1.4-5.3,2-7.1,2
					c-1.5,0-3.5-0.6-6.2-1.8l0,0c-1-0.5-2.2,0-2.7,1C2.7,25.3,2.7,25.4,2.7,25.4z"/>
			</g>
			<g id="Accessories_x2F_Shoe_x2F_Flat-Sneaker_1_" transform="translate(288.000000, 132.000000)">
				<path id="shoe_1_" class="st5" d="M2.7,25.4c-1.1,3-1.7,5.2-1.7,6.7c0,1.8,0.3,4.4,0.9,7.9c2.1,0,20.9,0,56.4,0
					c1.5-4.8,0.6-7.5-2.5-7.8c-3.2-0.4-5.8-0.7-7.9-1L21.7,19.4c-0.5-0.2-1.1,0-1.3,0.5c0,0,0,0,0,0L18.7,24c-2.9,1.4-5.3,2-7.1,2
					c-1.5,0-3.5-0.6-6.2-1.8l0,0c-1-0.5-2.2,0-2.7,1C2.7,25.3,2.7,25.4,2.7,25.4z"/>
			</g>
			<path id="Leg-and-Butt" class="st6" d="M208.9,66.3c-30.5-5-50.9-8.4-61.3-10.2c-29.5-5.2-38.1-21.1-33-55.8h54.4
				c7.2,2.1,37.3,14.9,90.2,38.6c9.5,4.7,7.8,18.7,6,23.3c-0.1,0.2-16.1,27.7-48.2,82.6l-44.5-28.3l36.5-46.8
				C209.9,67.7,209.9,66.5,208.9,66.3z"/>
		</g>
		<g id="Body_x2F_Hoodie" transform="translate(22.000000, 82.000000)">
			<path id="Skin" class="st0" d="M190.8,92.2l31.9,23.4c8.7,2.3,15.9,5.2,21.7,8.7c1.4,1.2,3,3.8-2.7,3.3
				c-5.7-0.4-11.7-0.6-12.5,1.3s2.7,4.3,1.1,6.9c-1.1,1.7-6.1-2.6-15-13.1l-31.6-13.1L190.8,92.2z M68.3,93l20.9,0.1
				c-12.9,41.7-19.9,63.8-20.9,66.3c-2.3,5.7,2.6,14.5,4.7,19.2c-6.8,3.1-6.1-8.3-14.7-4.2c-7.9,3.7-13.8,10.3-22.9,4.7
				c-1.1-0.7-2.3-3.3,0.6-5.3c7.4-5,18-13.9,19.4-16.8C57.4,152.9,61.7,131.6,68.3,93z"/>
			<path id="Coat-Back" class="st7" d="M127.7,5.3l8.6-1.5c32.1,27.7,45.3,81,84.6,109.2l-9.5,11.7
				C143.2,116.3,126.3,51.4,127.7,5.3z"/>
			<path id="Shirt" class="st8" d="M90,114c34.7,0,60.2,0,76.5,0c3.5,0,2.8-5,2.3-7.6C163,77,140.2,45.3,140.2,3.5L118.2,0
				C99.9,29.4,93.6,65.5,90,114z"/>
			<path id="Coat-Front" class="st9" d="M90.6,28.9c-3.2-0.9-5.7-3.1-7.6-6.4C74.9,7.9,77.8-0.2,86.5-2.8s16.3,2.8,30,2.8
				c0.7,0,1.4,0,2.1,0.1l6.9,0.4c19.8,67.2,25.3,112,16.4,134.5H81.7c-3.6,8.3-7,15.3-10.2,21H55C53.5,106.1,65.3,63.7,90.6,28.9z"
				/>
			<path id="Shade" class="st10" d="M94.8,100.5c1.9,15.8,5,27.3,9.2,34.5H81.7C85.8,125.3,90.2,113.8,94.8,100.5z"/>
		</g>
	</g>
</g>
</svg>
